<svg width="25" height="25" viewBox="0 0 25 25" fill="none" xmlns="http://www.w3.org/2000/svg">
    <path d="M23.6352 10.6202L13.9924 10.6197C13.5666 10.6197 13.2214 10.9648 13.2214 11.3906V14.471C13.2214 14.8968 13.5666 15.242 13.9923 15.242H19.4226C18.828 16.7851 17.7182 18.0774 16.3022 18.8986L18.6177 22.9068C22.3319 20.7587 24.5278 16.9897 24.5278 12.7704C24.5278 12.1697 24.4835 11.7402 24.395 11.2566C24.3277 10.8892 24.0087 10.6202 23.6352 10.6202Z" fill="#167EE6"/>
    <path d="M12.7068 19.8705C10.0494 19.8705 7.72944 18.4185 6.48345 16.2699L2.47534 18.5802C4.51504 22.1153 8.33606 24.4958 12.7068 24.4958C14.851 24.4958 16.8741 23.9185 18.617 22.9125V22.907L16.3015 18.8987C15.2424 19.513 14.0168 19.8705 12.7068 19.8705Z" fill="#12B347"/>
    <path d="M18.6184 22.9124V22.9069L16.303 18.8986C15.2439 19.5128 14.0183 19.8704 12.7083 19.8704V24.4957C14.8524 24.4957 16.8757 23.9184 18.6184 22.9124Z" fill="#0F993E"/>
    <path d="M5.51329 12.6754C5.51329 11.3655 5.87077 10.1401 6.48492 9.08098L2.47681 6.77075C1.4652 8.50811 0.887939 10.5258 0.887939 12.6754C0.887939 14.8251 1.4652 16.8427 2.47681 18.5801L6.48492 16.2699C5.87077 15.2108 5.51329 13.9853 5.51329 12.6754Z" fill="#FFD500"/>
    <path d="M12.7068 5.48044C14.4397 5.48044 16.0315 6.09621 17.2748 7.12047C17.5816 7.37313 18.0274 7.35489 18.3083 7.07393L20.4909 4.89132C20.8097 4.57254 20.787 4.05074 20.4465 3.75532C18.3634 1.94815 15.653 0.855087 12.7068 0.855087C8.33606 0.855087 4.51504 3.23564 2.47534 6.77075L6.48345 9.08098C7.72944 6.93241 10.0494 5.48044 12.7068 5.48044Z" fill="#FE724C"/>
    <path d="M17.2763 7.12047C17.583 7.37313 18.0288 7.35489 18.3098 7.07393L20.4924 4.89132C20.8111 4.57254 20.7884 4.05074 20.4479 3.75532C18.3648 1.9481 15.6544 0.855087 12.7083 0.855087V5.48044C14.4411 5.48044 16.033 6.09621 17.2763 7.12047Z" fill="#D93F21"/>
</svg>
